<?xml version="1.0" encoding="UTF-8" standalone="no"?>
<svg width="74" height="41" viewBox="0 0 74 41" fill="none" xmlns="http://www.w3.org/2000/svg">
<path d="M12.2344 0.288363C9.70662 0.684562 7.34434 1.79361 5.42481 3.48534V3.48534C5.14295 3.44076 4.85751 3.42293 4.57229 3.43207C3.58309 3.4999 2.66134 3.9579 2.00983 4.70534C1.35832 5.45278 1.03041 6.42841 1.09824 7.41762C1.16607 8.40682 1.62409 9.32856 2.37153 9.98007C3.11896 10.6316 4.0946 10.9595 5.0838 10.8917C5.9059 10.8074 6.67695 10.4532 7.27653 9.88449C7.87611 9.31576 8.27046 8.56448 8.398 7.74797V7.74797C9.60201 6.53093 11.2266 5.8216 12.9377 5.76586C13.1258 5.75526 13.3144 5.75526 13.5025 5.76586C15.6338 6.01096 17.9037 7.38565 20.4186 9.95389C23.093 12.8556 25.554 15.947 27.7823 19.2038L31.2457 24.1058C32.7057 26.1732 34.2189 28.3152 35.7534 30.3186C37.2544 32.2937 38.9859 34.0825 40.9112 35.6469C41.7728 36.3853 42.7786 36.9363 43.8648 37.2647C44.9509 37.5931 46.0936 37.6918 47.2199 37.5544L47.9019 37.4372L47.5183 36.9683C43.9572 33.059 40.7278 28.86 37.8634 24.4149L33.8139 18.5324C31.2169 14.6021 28.3692 10.8432 25.2887 7.27908C21.0261 2.49427 17.2536 0.256408 13.3853 0.203125C13.0004 0.210132 12.6161 0.23858 12.2344 0.288363V0.288363Z" fill="#A933FB"/>
<path d="M8.54721 20.9938C8.48969 21.8876 8.11427 22.7313 7.48883 23.3724C6.86338 24.0135 6.0292 24.4096 5.13711 24.4892H4.95595C3.99291 24.5001 3.0634 24.1359 2.36409 23.4736C1.66479 22.8114 1.25055 21.9031 1.20902 20.9409C1.16749 19.9787 1.50192 19.038 2.14155 18.318C2.78119 17.598 3.67585 17.155 4.63625 17.0829H4.93464L10.913 10.9447C11.3441 10.4986 11.8632 10.1469 12.4374 9.91212C13.0116 9.6773 13.6283 9.56442 14.2485 9.58063C14.8383 9.59612 15.4184 9.73389 15.9522 9.98519C16.486 10.2365 16.9618 10.5959 17.3496 11.0406L17.552 11.3283L8.54721 20.9938Z" fill="#1EACFC"/>
<path d="M4.92462 30.4891H4.85002C4.34701 30.4621 3.84376 30.5378 3.371 30.7117C2.89823 30.8857 2.46584 31.1541 2.10023 31.5006C1.73461 31.8471 1.44342 32.2645 1.24443 32.7273C1.04544 33.19 0.94281 33.6885 0.94281 34.1922C0.94281 34.696 1.04544 35.1944 1.24443 35.6572C1.44342 36.12 1.73461 36.5373 2.10023 36.8839C2.46584 37.2304 2.89823 37.4988 3.371 37.6727C3.84376 37.8466 4.34701 37.9224 4.85002 37.8954C5.01661 37.9111 5.18429 37.9111 5.35088 37.8954H5.42547C6.24945 37.7688 7.00567 37.3652 7.56942 36.7511C8.13317 36.137 8.47077 35.349 8.52654 34.5173L23.7974 17.9889L20.4726 13.9927L4.92462 30.4891Z" fill="#FFB600"/>
<path d="M60.6897 40.176C63.503 39.8563 66.2951 38.3111 69.215 35.4232H69.6732C70.6387 35.3363 71.5311 34.8728 72.1574 34.1329C72.7836 33.3929 73.0933 32.4362 73.0193 31.4696C72.9403 30.4925 72.485 29.5843 71.7495 28.9362C71.014 28.2882 70.0557 27.9509 69.0764 27.9955C68.1843 28.0522 67.3444 28.4357 66.7172 29.0726C66.0901 29.7096 65.7197 30.5554 65.677 31.4483V31.4483C63.6096 33.8034 61.5316 34.8477 59.347 34.6452C57.1624 34.4428 54.9564 33.0254 52.4308 30.4465C49.7539 27.547 47.2927 24.4555 45.0671 21.1966L41.5931 16.284C40.1331 14.2166 38.6306 12.0853 37.096 10.0925C35.6018 8.11508 33.8735 6.32595 31.9489 4.76421C31.0861 4.02436 30.0784 3.47257 28.9903 3.14413C27.9022 2.81568 26.7576 2.71778 25.6295 2.85667L24.9795 2.93127L25.4377 3.3895C28.9744 7.29938 32.1823 11.4945 35.0286 15.9323L38.3855 20.8023C41.1636 25.1001 44.2104 29.2182 47.5075 33.132C51.7701 37.9062 55.5426 40.1547 59.4109 40.1973C59.8372 40.2138 60.2641 40.2067 60.6897 40.176V40.176Z" fill="#0074E8"/>
<path d="M69.4072 22.4541H69.599C70.0847 22.4375 70.562 22.3221 71.0017 22.1151C71.4414 21.9081 71.8343 21.6137 72.1566 21.2499C72.4778 20.885 72.7226 20.4592 72.8764 19.9979C73.0301 19.5367 73.0898 19.0492 73.0517 18.5645C72.9716 17.6194 72.5393 16.7389 71.8406 16.0974C71.1419 15.4559 70.2278 15.1004 69.2793 15.1011H69.0768C68.1643 15.1659 67.3077 15.5647 66.6707 16.2213C66.0337 16.878 65.6611 17.7463 65.6241 18.6604V18.6604L55.4044 29.626L55.6069 29.8604C56.0054 30.3171 56.4966 30.6835 57.0479 30.9352C57.5992 31.187 58.1978 31.3183 58.8039 31.3204H58.8891C59.4869 31.3232 60.0789 31.2037 60.6287 30.9691C61.1785 30.7345 61.6745 30.3898 62.0861 29.9564L69.4072 22.4541Z" fill="#FB24A9"/>
<path d="M49.1382 23.019L52.5057 27.0258L69.7054 8.66455C70.6643 8.57248 71.5487 8.10781 72.1684 7.37046C72.7882 6.63311 73.0938 5.682 73.0196 4.72163C72.9406 3.74455 72.4853 2.8363 71.7498 2.18825C71.0143 1.54021 70.056 1.20296 69.0767 1.24758C68.1041 1.31339 67.1965 1.75953 66.5503 2.48947C65.9041 3.21941 65.5713 4.17445 65.624 5.14789L49.1382 23.019Z" fill="#FF8500"/>
</svg>
