<?xml version="1.0" encoding="UTF-8" standalone="no"?>
<svg
   xmlns:dc="http://purl.org/dc/elements/1.1/"
   xmlns:cc="http://creativecommons.org/ns#"
   xmlns:rdf="http://www.w3.org/1999/02/22-rdf-syntax-ns#"
   xmlns:svg="http://www.w3.org/2000/svg"
   xmlns="http://www.w3.org/2000/svg"
   viewBox="0 0 220.33333 84.519997"
   height="84.519997"
   width="220.33333"
   xml:space="preserve"
   id="svg2"
   version="1.1"><metadata
     id="metadata8"><rdf:RDF><cc:Work
         rdf:about=""><dc:format>image/svg+xml</dc:format><dc:type
           rdf:resource="http://purl.org/dc/dcmitype/StillImage" /></cc:Work></rdf:RDF></metadata><defs
     id="defs6" /><g
     transform="matrix(1.3333333,0,0,-1.3333333,0,84.52)"
     id="g10"><g
       transform="scale(0.1)"
       id="g12"><path
         id="path14"
         style="fill:#1f3b65;fill-opacity:1;fill-rule:nonzero;stroke:none"
         d="M 128,623.402 H 0 V 109.52 l 140.93,46.867 1.582,0.515 -2.637,233.575 -0.02,1.808 43.106,-58.472 96.562,-131 2.411,0.808 140.722,47.484 L 128,623.402 Z M 0,10.5156 H 141.797 L 141.789,13.0547 0,57.3633 V 10.5156 Z M 368.098,90.293 428.742,10.5156 H 565.527 V 623.402 H 428.742 V 253.152 L 502.559,278.059 368.098,90.293 Z M 1587.74,445.422 c 0,130.125 -108.73,187.488 -208.89,187.488 -107.49,0 -168.13,-60.039 -196.19,-99.09 l 97.48,-97.488 c 11.67,18.141 40.97,55.316 85.01,55.316 31.67,0 65.92,-17.968 65.92,-60.781 0,-88.179 -264.54,-128.414 -264.54,-354.4217 0,-20.5469 2.57,-41.9531 6.85,-65.9297 h 110.63 52.89 120.95 L 1586.27,138.945 H 1336.9 c 4.28,78.758 250.84,115.567 250.84,306.477 M 1063.45,310.383 c 32.13,-28.653 48.22,-70.442 48.22,-125.379 0,-54.945 -20.6,-99.5157 -61.82,-133.7071 C 1008.63,17.0977 954.426,0 887.199,0 790.176,0 702.785,35.9531 625.051,107.852 l 81.531,99.953 c 66.066,-57.875 127.141,-86.801 183.262,-86.801 25.129,0 44.855,5.391 59.179,16.211 14.317,10.812 21.485,25.43 21.485,43.84 0,18.418 -7.606,33.023 -22.801,43.84 -15.215,10.812 -45.305,21.773 -90.305,32.882 -71.328,16.953 -123.496,39.024 -156.511,66.2 -33.028,27.183 -49.532,69.843 -49.532,128.015 0,58.156 20.879,103.02 62.684,134.59 41.789,31.555 93.945,47.348 156.504,47.348 40.91,0 81.828,-7.024 122.754,-21.051 40.919,-14.031 76.559,-33.91 106.969,-59.625 l -69.26,-99.949 c -53.197,40.336 -108.147,60.496 -164.838,60.496 -22.793,0 -40.77,-5.41 -53.926,-16.215 -13.164,-10.824 -19.726,-25.141 -19.726,-42.969 0,-17.836 8.027,-31.996 24.113,-42.523 16.074,-10.524 53.183,-22.946 111.347,-37.262 58.165,-14.336 103.31,-35.809 135.47,-64.449" /><path
         id="path16"
         style="fill:#1f3b65;fill-opacity:1;fill-rule:nonzero;stroke:none"
         d="m 1622.34,29.9609 v 8.8477 h 5.86 c 3.02,0 6.2,-0.6563 6.2,-4.1523 0,-4.4805 -3.26,-4.6954 -6.87,-4.6954 h -5.19 z m 0,-3.6836 h 4.97 l 7.47,-12.3125 h 4.91 l -8.19,12.5586 c 4.22,0.4688 7.46,2.7227 7.46,7.8399 0,5.5781 -3.34,8.0859 -10.06,8.0859 h -10.87 V 13.9648 h 4.31 v 12.3125 z m 5.23,-22.83199 c 13.49,0 24.97,10.51949 24.97,24.79689 0,14.207 -11.48,24.6875 -24.97,24.6875 -13.59,0 -25.13,-10.4805 -25.13,-24.6875 0,-14.2774 11.54,-24.79689 25.13,-24.79689 m -20.13,24.79689 c 0,11.6992 8.84,20.6328 20.13,20.6328 11.2,0 20.03,-8.9336 20.03,-20.6328 0,-11.9063 -8.83,-20.69532 -20.03,-20.69532 -11.29,0 -20.13,8.78902 -20.13,20.69532" /></g></g></svg>