<svg xmlns="http://www.w3.org/2000/svg" viewBox="0 0 226.72 86.97"><defs><style>.cls-1{fill:#fff;}</style></defs><g id="Layer_2" data-name="Layer 2"><g id="Layer_1-2" data-name="Layer 1"><polygon class="cls-1" points="17.56 1.44 0 1.44 0 71.95 19.34 65.52 19.55 65.45 19.19 33.4 19.19 33.15 25.1 41.17 38.35 59.15 38.68 59.04 57.99 52.52 17.56 1.44"/><polygon class="cls-1" points="0 85.53 19.45 85.53 19.45 85.18 0 79.1 0 85.53"/><polygon class="cls-1" points="50.5 74.58 58.82 85.53 77.59 85.53 77.59 1.44 58.82 1.44 58.82 52.24 68.95 48.82 50.5 74.58"/><path class="cls-1" d="M217.83,25.86C217.83,8,202.92.14,189.17.14a32.18,32.18,0,0,0-26.91,13.59l13.37,13.38c1.6-2.49,5.62-7.59,11.66-7.59,4.35,0,9.05,2.47,9.05,8.34,0,12.1-36.29,17.62-36.29,48.63a52.15,52.15,0,0,0,.93,9h39l17.62-17.62H183.42c.59-10.8,34.41-15.85,34.41-42"/><path class="cls-1" d="M222.58,82.86V81.65h.81c.41,0,.84.09.84.57s-.44.64-.94.64Zm0,.51h.68l1,1.69H225l-1.12-1.72a1,1,0,0,0,1-1.08c0-.77-.46-1.11-1.38-1.11H222v3.91h.59Zm.72,3.13a3.4,3.4,0,1,0-3.45-3.4,3.38,3.38,0,0,0,3.45,3.4m-2.76-3.4a2.76,2.76,0,1,1,2.76,2.84,2.75,2.75,0,0,1-2.76-2.84"/><path class="cls-1" d="M145.9,44.39q6.61,5.89,6.62,17.2A22.74,22.74,0,0,1,144,79.94q-8.49,7-22.32,7-20,0-36-14.79L96.94,58.46q13.59,11.91,25.14,11.91,5.17,0,8.12-2.22a7.15,7.15,0,0,0,3-6,7,7,0,0,0-3.13-6q-3.12-2.22-12.39-4.51Q103,48.12,96.16,42.52T89.36,25q0-12,8.6-18.46T119.44,0a51.55,51.55,0,0,1,16.84,2.89A45,45,0,0,1,151,11.07l-9.5,13.71q-10.95-8.3-22.61-8.3a11.27,11.27,0,0,0-7.4,2.23,7.23,7.23,0,0,0-2.71,5.89A6.67,6.67,0,0,0,112,30.44q3.3,2.16,15.28,5.11T145.9,44.39Z"/></g></g></svg>