<svg width="74" height="41" viewBox="0 0 74 41" fill="none" xmlns="http://www.w3.org/2000/svg">
<path d="M12.2339 0.288358C9.70635 0.684529 7.34422 1.79351 5.42483 3.48512C5.14298 3.44054 4.85756 3.42271 4.57236 3.43185C3.58322 3.49968 2.66154 3.95765 2.01007 4.70504C1.35861 5.45243 1.03072 6.42799 1.09855 7.41713C1.16637 8.40627 1.62436 9.32794 2.37174 9.97941C3.11913 10.6309 4.0947 10.9588 5.08384 10.891C5.90588 10.8067 6.67688 10.4525 7.27641 9.88384C7.87595 9.31514 8.27028 8.56391 8.39781 7.74746C9.60174 6.53051 11.2263 5.82122 12.9372 5.76549C13.1253 5.75489 13.3139 5.75489 13.502 5.76549C15.6331 6.01057 17.9028 7.38517 20.4176 9.95323C23.0919 12.8547 25.5527 15.9459 27.7808 19.2025L31.244 24.1042C32.7038 26.1715 34.217 28.3133 35.7514 30.3166C37.2523 32.2916 38.9837 34.0802 40.9088 35.6445C41.7703 36.3829 42.7761 36.9338 43.8622 37.2622C44.9483 37.5906 46.0908 37.6893 47.2171 37.5519L47.8991 37.4347L47.5155 36.9659C43.9546 33.0568 40.7254 28.8581 37.8613 24.4132L33.812 18.5312C31.2152 14.6011 28.3677 10.8424 25.2874 7.2786C21.025 2.49412 17.2528 0.256404 13.3848 0.203125C12.9999 0.210132 12.6157 0.238577 12.2339 0.288358Z" fill="white"/>
<path d="M8.54702 20.9926C8.4895 21.8863 8.11411 22.7299 7.48871 23.371C6.86331 24.012 6.02918 24.4081 5.13715 24.4877H4.95601C3.99302 24.4986 3.06358 24.1344 2.36432 23.4722C1.66507 22.81 1.25086 21.9018 1.20932 20.9396C1.16779 19.9775 1.5022 19.0369 2.14179 18.3169C2.78139 17.5969 3.67599 17.154 4.63633 17.0819H4.93469L10.9126 10.9441C11.3437 10.498 11.8628 10.1464 12.4369 9.91161C13.0111 9.67681 13.6278 9.56393 14.2479 9.58014C14.8377 9.59563 15.4178 9.73339 15.9515 9.98468C16.4853 10.236 16.9611 10.5953 17.3488 11.04L17.5512 11.3277L8.54702 20.9926Z" fill="white"/>
<path d="M4.92435 30.487H4.84976C4.34678 30.46 3.84357 30.5357 3.37083 30.7096C2.8981 30.8835 2.46574 31.1519 2.10015 31.4984C1.73456 31.8449 1.44339 32.2623 1.24441 32.725C1.04543 33.1878 0.94281 33.6862 0.94281 34.1899C0.94281 34.6936 1.04543 35.192 1.24441 35.6548C1.44339 36.1175 1.73456 36.5348 2.10015 36.8813C2.46574 37.2278 2.8981 37.4962 3.37083 37.6701C3.84357 37.844 4.34678 37.9198 4.84976 37.8928C5.01633 37.9085 5.18401 37.9085 5.35058 37.8928H5.42517C6.24909 37.7663 7.00526 37.3626 7.56897 36.7486C8.13269 36.1345 8.47027 35.3466 8.52603 34.5149L23.7959 17.9876L20.4712 13.9917L4.92435 30.487Z" fill="white"/>
<path d="M60.6855 40.173C63.4987 39.8533 66.2905 38.3082 69.2102 35.4205H69.6684C70.6338 35.3337 71.5262 34.8701 72.1524 34.1303C72.7786 33.3904 73.0883 32.4337 73.0143 31.4672C72.9353 30.4902 72.4801 29.582 71.7446 28.934C71.0092 28.286 70.0509 27.9487 69.0717 27.9934C68.1796 28.05 67.3398 28.4335 66.7127 29.0704C66.0856 29.7073 65.7152 30.553 65.6725 31.4458C63.6052 33.8008 61.5273 34.8451 59.3429 34.6426C57.1584 34.4401 54.9527 33.0229 52.4272 30.4442C49.7504 27.5449 47.2895 24.4535 45.064 21.1949L41.5902 16.2826C40.1304 14.2153 38.6279 12.0842 37.0934 10.0915C35.5993 8.11424 33.8711 6.32523 31.9467 4.76359C31.0839 4.02378 30.0763 3.47204 28.9883 3.14361C27.9003 2.81519 26.7557 2.71729 25.6277 2.85618L24.9777 2.93078L25.4359 3.38897C28.9724 7.29859 32.18 11.4935 35.0262 15.9309L38.3828 20.8006C41.1608 25.0981 44.2073 29.2159 47.5042 33.1295C51.7666 37.9033 55.5387 40.1517 59.4068 40.1943C59.8331 40.2108 60.26 40.2037 60.6855 40.173Z" fill="white"/>
<path d="M69.4024 22.4526H69.5942C70.0799 22.436 70.5571 22.3207 70.9968 22.1137C71.4364 21.9066 71.8293 21.6123 72.1516 21.2486C72.4728 20.8836 72.7176 20.4579 72.8713 19.9966C73.0251 19.5354 73.0847 19.048 73.0467 18.5633C72.9665 17.6182 72.5343 16.7378 71.8357 16.0964C71.137 15.4549 70.2229 15.0994 69.2745 15.1001H69.072C68.1596 15.1649 67.303 15.5637 66.6661 16.2203C66.0292 16.8769 65.6566 17.7451 65.6195 18.6592L55.4006 29.624L55.603 29.8585C56.0015 30.3151 56.4927 30.6815 57.044 30.9332C57.5952 31.1849 58.1938 31.3162 58.7998 31.3183H58.885C59.4828 31.3212 60.0747 31.2016 60.6245 30.9671C61.1743 30.7325 61.6702 30.3878 62.0818 29.9544L69.4024 22.4526Z" fill="white"/>
<path d="M49.1346 23.0175L52.5018 27.0241L69.7004 8.66405C70.6591 8.57199 71.5435 8.10735 72.1632 7.37005C72.7829 6.63275 73.0886 5.6817 73.0144 4.7214C72.9353 3.74438 72.4801 2.83619 71.7446 2.18819C71.0092 1.54019 70.0509 1.20296 69.0717 1.24758C68.0991 1.31338 67.1916 1.75949 66.5454 2.48938C65.8993 3.21928 65.5665 4.17425 65.6192 5.14763L49.1346 23.0175Z" fill="white"/>
</svg>
