<svg width="236" height="32" viewBox="0 0 236 32" fill="none" xmlns="http://www.w3.org/2000/svg">
<path d="M55.7149 21.2003L58.2642 18.4358C59.1186 19.3316 60.1485 20.0418 61.2895 20.5221C62.4306 21.0023 63.6583 21.2424 64.8962 21.2272C68.1114 21.2272 69.5508 19.9694 69.5508 18.0188C69.5508 15.8866 67.5329 15.3283 64.0891 14.5077C60.2484 13.5728 56.5221 12.2544 56.5221 7.78147C56.5221 3.79281 59.5825 0.907253 65.0509 0.907253C66.5917 0.848297 68.1284 1.10287 69.5679 1.65554C71.0074 2.20821 72.3196 3.04745 73.4251 4.1224L71.0507 6.90034C70.2752 6.0727 69.3374 5.4138 68.2958 4.96478C67.2543 4.51575 66.1313 4.28624 64.9971 4.29055C62.2057 4.29055 60.8201 5.63581 60.8201 7.351C60.8201 9.44959 62.7438 9.90025 66.1339 10.7141C70.1696 11.7365 73.8219 12.9943 73.8219 17.5547C73.8219 21.6981 70.6404 24.5836 64.876 24.5836C60.9076 24.624 57.9346 23.42 55.7149 21.2003ZM89.5479 8.17161L82.9764 25.3706C81.7118 28.6732 80.2119 30.1126 77.2389 30.1126C76.486 30.1246 75.7362 30.0132 75.0192 29.783V26.8436C75.4814 26.9589 75.9554 27.0198 76.4317 27.0253C77.8711 27.0253 78.7119 26.4804 79.2837 24.6845L72.9812 8.17161H77.2725L81.3083 20.0905H81.3688L85.4045 8.17161H89.5479ZM95.0096 10.3374C95.5011 9.53988 96.1966 8.88806 97.0244 8.44935C97.8521 8.01065 98.782 7.80097 99.718 7.84201C101.911 7.84201 103.619 8.80386 104.46 10.4249C105.008 9.59041 105.763 8.91325 106.653 8.46028C107.542 8.0073 108.535 7.79419 109.532 7.84201C112.834 7.84201 115.027 9.91369 115.027 13.0347V24.2944H110.991V13.6938C111.023 13.3325 110.975 12.9686 110.851 12.6277C110.727 12.2868 110.53 11.9772 110.274 11.7207C110.017 11.4642 109.708 11.2671 109.367 11.1431C109.026 11.0192 108.662 10.9715 108.301 11.0033C107.871 10.9817 107.441 11.0511 107.04 11.2068C106.638 11.3626 106.275 11.6012 105.972 11.9072C105.669 12.2132 105.434 12.5796 105.283 12.9825C105.131 13.3854 105.066 13.8157 105.092 14.2454V24.2742H101.056V13.6938C101.087 13.3328 101.039 12.9694 100.914 12.629C100.79 12.2887 100.593 11.9796 100.337 11.7233C100.08 11.4671 99.7712 11.2699 99.4308 11.1456C99.0905 11.0212 98.7271 10.9727 98.366 11.0033C97.9344 10.9811 97.5029 11.0498 97.0995 11.2048C96.6961 11.3599 96.3297 11.5979 96.0241 11.9035C95.7185 12.2091 95.4805 12.5755 95.3254 12.9789C95.1704 13.3823 95.1017 13.8138 95.1239 14.2454V24.2742H91.0882V8.13123H94.8751L94.9692 10.2971L95.0096 10.3374ZM121.242 22.2227H121.181V29.7696H117.146V8.17161H120.959L121.047 10.5729H121.107C121.693 9.73028 122.473 9.04182 123.382 8.56628C124.291 8.09073 125.301 7.84224 126.327 7.84201C130.686 7.84201 133.262 11.4473 133.262 16.1557C133.262 20.864 130.571 24.624 126.213 24.624C125.255 24.6443 124.307 24.4372 123.445 24.0198C122.583 23.6024 121.833 22.9865 121.255 22.2227H121.242ZM129.179 16.2162C129.179 13.4853 127.948 11.0235 125.143 11.0235C122.453 11.0235 121.107 13.3642 121.107 16.3103C121.107 19.2564 122.513 21.4425 125.096 21.4425C127.834 21.4425 129.179 19.1286 129.179 16.2162ZM135.407 1.23683H139.443V10.3643H139.504C140.024 9.55774 140.745 8.90079 141.597 8.45843C142.449 8.01606 143.401 7.80359 144.36 7.84201C147.723 7.84201 149.855 10.0348 149.855 13.3374V24.2944H145.82V13.9965C145.82 12.3486 144.858 11.0235 142.934 11.0235C142.465 11.0066 141.997 11.0882 141.561 11.263C141.125 11.4378 140.731 11.7019 140.403 12.0384C140.076 12.3748 139.822 12.7761 139.659 13.2165C139.496 13.6569 139.427 14.1265 139.457 14.5952V24.2944H135.421L135.407 1.23683ZM152.035 16.2498C152.035 11.4473 154.974 7.84201 160.321 7.84201C165.669 7.84201 168.601 11.4473 168.601 16.2498C168.601 21.0523 165.662 24.624 160.321 24.624C154.981 24.624 152.008 21.0254 152.008 16.2498H152.035ZM156.144 16.2498C156.144 19.2161 157.53 21.503 160.321 21.503C163.113 21.503 164.492 19.2161 164.492 16.2498C164.492 13.2835 163.146 10.963 160.321 10.963C157.496 10.963 156.117 13.2432 156.117 16.2498H156.144ZM170.72 8.17832H174.534L174.621 10.4585H174.682C175.2 9.62798 175.928 8.94911 176.792 8.49078C177.657 8.03244 178.628 7.81094 179.606 7.84874C182.969 7.84874 185.188 10.0684 185.188 13.4046V24.3011H181.153V13.9965C181.185 13.6054 181.133 13.212 181.001 12.8426C180.868 12.4732 180.658 12.1364 180.385 11.8548C180.112 11.5732 179.781 11.3533 179.416 11.21C179.051 11.0666 178.659 11.003 178.267 11.0235C177.798 11.0066 177.33 11.0882 176.894 11.263C176.458 11.4378 176.064 11.7019 175.736 12.0384C175.409 12.3748 175.155 12.7761 174.992 13.2165C174.829 13.6569 174.76 14.1265 174.79 14.5952V24.2944H170.754L170.72 8.17832ZM202.542 8.17832L195.97 25.3773C194.713 28.6799 193.213 30.1193 190.24 30.1193C189.487 30.1319 188.737 30.0206 188.02 29.7897V26.8504C188.48 26.9652 188.952 27.0261 189.426 27.032C190.872 27.032 191.706 26.4872 192.278 24.6913L185.975 8.17832H190.267L194.302 20.0972H194.363L198.399 8.17832H202.542ZM216.95 18.6578H207.318L205.3 24.3011H200.948L209.625 1.24357H214.757L223.427 24.3011H218.927L216.95 18.6578ZM215.719 15.2342L212.174 5.3264H212.12L208.549 15.2274L215.719 15.2342ZM224.839 24.3011V1.23683H229.104V24.2944L224.839 24.3011Z" fill="#250144"/>
<path d="M7.87723 0.173918C6.28176 0.423991 4.79073 1.124 3.57916 2.19179V2.19179C3.40125 2.16365 3.22109 2.1524 3.04106 2.15817C2.41669 2.20098 1.83491 2.49007 1.42368 2.96184C1.01246 3.4336 0.805492 4.04941 0.848306 4.67378C0.89112 5.29814 1.18021 5.87993 1.65198 6.29115C2.12375 6.70237 2.73955 6.90935 3.36392 6.86654C3.88281 6.81334 4.36948 6.58979 4.74793 6.23082C5.12637 5.87185 5.37528 5.39765 5.45578 4.88229V4.88229C6.21573 4.11411 7.24117 3.6664 8.32116 3.63122C8.4399 3.62453 8.55891 3.62453 8.67765 3.63122C10.0229 3.78592 11.4556 4.6536 13.043 6.27462C14.731 8.10612 16.2844 10.0573 17.6908 12.113L19.8768 15.2071C20.7983 16.512 21.7535 17.8639 22.722 19.1285C23.6694 20.3751 24.7623 21.5042 25.9775 22.4916C26.5213 22.9577 27.1562 23.3054 27.8418 23.5127C28.5273 23.72 29.2485 23.7823 29.9595 23.6956L30.39 23.6216L30.1478 23.3257C27.9001 20.8582 25.8618 18.2078 24.0538 15.4021L21.4979 11.6892C19.8587 9.20847 18.0613 6.83591 16.1169 4.58633C13.4264 1.56625 11.0453 0.153748 8.60366 0.120117C8.3607 0.12454 8.11819 0.142496 7.87723 0.173918V0.173918Z" fill="#A933FB"/>
<path d="M5.54993 13.2428C5.51362 13.807 5.27666 14.3395 4.8819 14.7442C4.48713 15.1488 3.96061 15.3988 3.39754 15.4491H3.28319C2.67533 15.4559 2.08864 15.2261 1.64726 14.8081C1.20587 14.3901 0.944411 13.8168 0.918195 13.2094C0.89198 12.6021 1.10307 12.0084 1.50679 11.5539C1.91052 11.0994 2.47521 10.8199 3.0814 10.7743H3.26974L7.04316 6.90001C7.31525 6.61843 7.64291 6.39649 8.00534 6.24828C8.36776 6.10007 8.75705 6.02882 9.14847 6.03905C9.52074 6.04883 9.88692 6.13578 10.2238 6.2944C10.5608 6.45302 10.8611 6.67985 11.1058 6.96054L11.2336 7.14214L5.54993 13.2428Z" fill="#1EACFC"/>
<path d="M3.26343 19.236H3.21635C2.89885 19.2189 2.58121 19.2667 2.28281 19.3765C1.98441 19.4863 1.71149 19.6557 1.48072 19.8744C1.24995 20.0931 1.06616 20.3566 0.940559 20.6487C0.814958 20.9407 0.750183 21.2554 0.750183 21.5733C0.750183 21.8913 0.814958 22.2059 0.940559 22.498C1.06616 22.7901 1.24995 23.0535 1.48072 23.2722C1.71149 23.491 1.98441 23.6604 2.28281 23.7701C2.58121 23.8799 2.89885 23.9277 3.21635 23.9107C3.32149 23.9206 3.42733 23.9206 3.53247 23.9107H3.57956C4.09964 23.8308 4.57695 23.576 4.93278 23.1884C5.28861 22.8008 5.5017 22.3035 5.5369 21.7785L15.1756 11.3461L13.077 8.82373L3.26343 19.236Z" fill="#FFB600"/>
<path d="M38.4613 25.3503C40.2371 25.1485 41.9993 24.1732 43.8423 22.3504H44.1315C44.7409 22.2956 45.3042 22.003 45.6995 21.536C46.0948 21.069 46.2903 20.465 46.2436 19.855C46.1937 19.2383 45.9063 18.665 45.4421 18.256C44.9779 17.8469 44.373 17.6341 43.7549 17.6622C43.1918 17.698 42.6616 17.94 42.2658 18.3421C41.87 18.7441 41.6362 19.2779 41.6092 19.8415V19.8415C40.3043 21.328 38.9927 21.9872 37.6138 21.8594C36.2349 21.7316 34.8426 20.837 33.2485 19.2092C31.5588 17.3791 30.0054 15.4278 28.6007 13.3709L26.4079 10.2701C25.4864 8.96519 24.538 7.61994 23.5694 6.36214C22.6263 5.11403 21.5354 3.98476 20.3207 2.99902C19.7761 2.53204 19.1401 2.18376 18.4533 1.97645C17.7665 1.76914 17.044 1.70735 16.332 1.79501L15.9217 1.8421L16.2109 2.13133C18.4432 4.59917 20.468 7.24709 22.2645 10.0481L24.3833 13.122C26.1368 15.8347 28.0599 18.4339 30.141 20.9043C32.8315 23.9176 35.2125 25.3369 37.6542 25.3638C37.9233 25.3742 38.1927 25.3697 38.4613 25.3503V25.3503Z" fill="#0074E8"/>
<path d="M43.9636 14.1645H44.0847C44.3913 14.154 44.6925 14.0812 44.9701 13.9506C45.2476 13.8199 45.4956 13.6341 45.699 13.4045C45.9018 13.1741 46.0563 12.9054 46.1533 12.6142C46.2504 12.3231 46.288 12.0154 46.264 11.7095C46.2134 11.1129 45.9406 10.5572 45.4996 10.1523C45.0586 9.74742 44.4816 9.52298 43.8829 9.52344H43.7551C43.1792 9.56433 42.6385 9.81607 42.2364 10.2305C41.8344 10.645 41.5992 11.1931 41.5758 11.77V11.77L35.1254 18.6913L35.2532 18.8393C35.5047 19.1275 35.8148 19.3588 36.1627 19.5177C36.5107 19.6766 36.8885 19.7595 37.271 19.7608H37.3248C37.7021 19.7626 38.0758 19.6871 38.4228 19.539C38.7699 19.391 39.0829 19.1734 39.3427 18.8998L43.9636 14.1645Z" fill="#FB24A9"/>
<path d="M31.1703 14.521L33.2958 17.0501L44.1519 5.46079C44.7571 5.40268 45.3153 5.10939 45.7065 4.64399C46.0977 4.17858 46.2906 3.57826 46.2438 2.97209C46.1939 2.35538 45.9066 1.78211 45.4423 1.37307C44.9781 0.964037 44.3732 0.751173 43.7551 0.779332C43.1412 0.82087 42.5683 1.10247 42.1604 1.56319C41.7526 2.02392 41.5425 2.62672 41.5758 3.24114L31.1703 14.521Z" fill="#FF8500"/>
</svg>
